<svg width="38" height="38" viewBox="0 0 38 38" fill="none" xmlns="http://www.w3.org/2000/svg">
<g clip-path="url(#clip0_2_867)">
<path fill-rule="evenodd" clip-rule="evenodd" d="M0.156764 0.0801041H37.919V37.8424H0.156764V0.0801041Z" fill="#D97AA5"/>
<path fill-rule="evenodd" clip-rule="evenodd" d="M18.5025 27.0049C14.3589 27.0049 11 23.6458 11 19.5024C11 15.3591 14.3589 12 18.5025 12C22.6459 12 26.0048 15.3591 26.0048 19.5024C26.0048 23.6458 22.6459 27.0049 18.5025 27.0049ZM20.2954 18.243C20.4833 18.6232 20.6629 19.0017 20.8282 19.3733C21.8474 19.205 22.9497 19.2 24.1216 19.4313C24.1092 18.3381 23.781 17.3227 23.2305 16.4636C22.3301 17.2126 21.3249 17.7931 20.2954 18.243ZM22.3826 23.5614C23.1315 22.845 23.6779 21.923 23.9431 20.8881C23.336 20.7807 22.4621 20.7003 21.4324 20.82C21.8543 21.8994 22.1709 22.8597 22.3826 23.5614ZM18.4945 25.1258C19.38 25.1258 20.2146 24.9155 20.9599 24.5513C20.7674 23.3739 20.4176 22.2138 19.9887 21.1114C18.5197 21.5357 16.8788 22.4211 15.3017 24.1305C16.2093 24.7571 17.3084 25.1258 18.4945 25.1258ZM14.1958 23.1273C15.1957 22.0812 17.0035 20.5055 19.3964 19.7237C19.2433 19.3953 19.0847 19.0771 18.9239 18.7657C16.4945 19.5675 14.1321 19.741 12.8767 19.7698C12.9386 21.0468 13.4218 22.2121 14.1958 23.1273ZM12.991 18.3133C15.1592 18.1501 16.8628 17.8294 18.193 17.4384C17.4269 16.1266 16.6737 15.0551 16.1624 14.3755C14.5648 15.1045 13.3677 16.5562 12.991 18.3133ZM18.4945 13.8653C18.1729 13.8653 17.8594 13.8986 17.5524 13.9504C18.3327 14.8641 19.0143 15.8945 19.6088 16.9462C20.9722 16.3877 21.7804 15.7759 22.2452 15.3065C21.2495 14.4133 19.9379 13.8653 18.4945 13.8653Z" fill="white"/>
</g>
<defs>
<clipPath id="clip0_2_867">
<rect width="38" height="38" fill="white"/>
</clipPath>
</defs>
</svg>
