<svg width="38" height="38" viewBox="0 0 38 38" fill="none" xmlns="http://www.w3.org/2000/svg">
<g clip-path="url(#clip0_2_877)">
<path fill-rule="evenodd" clip-rule="evenodd" d="M0.081047 0.0801041H37.8433V37.8424H0.081047V0.0801041Z" fill="#F8BC2E"/>
<path fill-rule="evenodd" clip-rule="evenodd" d="M11 13.8957V11C19.3059 11 26.0375 17.7354 26.0375 26.0374H23.1396C23.1396 19.3433 17.6962 13.8957 11 13.8957ZM11 19.1603V16.2646C16.3997 16.2646 20.7724 20.6421 20.7724 26.0374H17.8748C17.8748 22.2453 14.7899 19.1603 11 19.1603ZM11 24.265C11 23.2862 11.7935 22.4926 12.7724 22.4926C13.7512 22.4926 14.5448 23.2862 14.5448 24.265C14.5448 25.2438 13.7512 26.0374 12.7724 26.0374C11.7935 26.0374 11 25.2438 11 24.265Z" fill="white"/>
</g>
<defs>
<clipPath id="clip0_2_877">
<rect width="38" height="38" fill="white"/>
</clipPath>
</defs>
</svg>
