<svg width="40" height="38" viewBox="0 0 40 38" fill="none" xmlns="http://www.w3.org/2000/svg">
<g clip-path="url(#clip0_2_904)">
<path fill-rule="evenodd" clip-rule="evenodd" d="M0.261972 0.08112H39.8663V37.9181H0.261972V0.08112Z" fill="#00C6FF"/>
<path fill-rule="evenodd" clip-rule="evenodd" d="M18.3181 11.6429C17.6032 11.2338 16.7751 11 15.8924 11C13.1904 11 11 13.1905 11 15.8924C11 17.0269 11.3862 18.0713 12.0345 18.9012C12.0345 18.9012 11.9894 19.0284 11.9894 19.1358C11.9894 23.3455 15.4023 26.7581 19.6121 26.7581C19.9833 26.7581 20.8338 26.662 20.8338 26.662L20.9059 26.7018C20.9059 26.7018 21.771 27.3629 23.3317 27.3444C26.0336 27.3444 28.224 25.1542 28.224 22.452C28.224 21.3175 27.9293 20.2733 27.2812 19.4432L27.232 19.3363C27.2337 19.2695 27.2346 19.2026 27.2346 19.1358C27.2346 14.9258 23.8219 11.5132 19.6121 11.5132C19.1873 11.5132 18.7705 11.5477 18.3646 11.6146L18.3181 11.6429ZM19.8193 13.8827C18.8573 13.8827 17.884 14.1628 16.9729 14.723C16.0616 15.2833 15.5328 16.136 15.5328 17.0612C15.5328 18.0841 16.0436 18.8048 16.8452 19.2231C17.6468 19.6417 18.5287 19.8976 19.4906 19.9904C20.5595 20.0836 21.2446 20.4558 21.5091 20.8511C21.7736 21.2461 21.7736 21.6414 21.5091 22.0367C21.2446 22.432 20.6144 22.7211 19.5456 22.7211C18.263 22.628 17.2994 22.0825 16.7651 21.5248C16.7651 21.5248 16.2037 20.9239 15.5061 21.537C14.6738 22.222 15.3266 22.8463 15.3266 22.8463C15.861 23.3114 16.3374 23.7565 17.0857 24.0357C17.8338 24.3146 18.7664 24.454 19.8835 24.454C21.0591 24.454 22.0892 24.1518 22.9738 23.5473C23.8583 22.9429 24.3005 22.2222 24.3005 21.3853C24.3005 20.3159 23.8863 19.5371 23.058 19.0489C22.2295 18.5607 21.3076 18.2701 20.2923 18.177C19.3304 18.0375 18.5324 17.7734 18.2653 17.4943C17.998 17.2154 17.943 16.6036 18.2102 16.2083C18.4775 15.8133 19.1838 15.5056 20.3289 15.6338C21.1993 15.817 21.7642 16.2426 22.4086 16.709C22.4086 16.709 23.112 16.9806 23.5483 16.4391C24.0664 15.7266 23.5356 15.1857 23.5356 15.1857C23.5356 15.1857 23.0312 14.5738 22.4167 14.3413C21.802 14.1087 20.9362 13.8827 19.8193 13.8827Z" fill="white"/>
</g>
<defs>
<clipPath id="clip0_2_904">
<rect width="40" height="38" fill="white"/>
</clipPath>
</defs>
</svg>
