<svg width="38" height="38" viewBox="0 0 38 38" fill="none" xmlns="http://www.w3.org/2000/svg">
<g clip-path="url(#clip0_2_864)">
<path fill-rule="evenodd" clip-rule="evenodd" d="M0.15783 0.0801041H37.9201V37.8424H0.15783V0.0801041Z" fill="#45B0E3"/>
<path fill-rule="evenodd" clip-rule="evenodd" d="M7.98473 22.7096C7.98473 22.7096 12.0058 26.2061 15.2034 22.7402C15.2034 22.7402 14.6686 22.7392 14.3256 22.4756C14.0126 22.2348 13.8888 21.7293 13.8888 21.7293C13.8888 21.7293 14.8834 21.1731 14.5102 20.753C14.5102 20.753 12.31 20.7092 12.1869 19.3809L13.4793 18.5465C13.4793 18.5465 12.9716 18.7926 12.469 18.5427C12.469 18.5427 11.1648 17.607 11.4136 16.6492L12.5033 16.5378C12.5033 16.5378 10.6128 15.1944 11.1408 14.162C11.1408 14.162 11.3227 13.2738 17.5766 17.4262C17.5766 17.4262 18.6791 13.5024 20.7156 12.6395C20.7156 12.6395 21.0541 12.8019 21.0541 12.9747C21.0541 12.9747 21.3431 12.3536 21.7238 12.296C21.7238 12.296 22.1842 12.7013 21.8849 12.9321C21.8849 12.9321 22.6596 12.4022 23.0379 12.671C23.0379 12.671 23.007 13.1427 21.8932 13.7292C21.8932 13.7292 24.7837 13.8894 25.7926 17.7439C25.7926 17.7439 27.0464 18.1943 28.2228 17.4377C28.2228 17.4377 28.3207 18.0073 26.4935 18.8126C26.4935 18.8126 26.6635 19.087 28.195 18.8782C28.195 18.8782 28.1832 20.0177 25.76 20.0087C25.76 20.0087 23.7139 25.937 18.7407 26.7531C12.6966 27.745 8.4511 24.7231 7.98473 22.7096Z" fill="white"/>
</g>
<defs>
<clipPath id="clip0_2_864">
<rect width="38" height="41" fill="white" transform="translate(0 -1)"/>
</clipPath>
</defs>
</svg>
