<svg width="38" height="38" viewBox="0 0 38 38" fill="none" xmlns="http://www.w3.org/2000/svg">
<g clip-path="url(#clip0_2_887)">
<path fill-rule="evenodd" clip-rule="evenodd" d="M0 0H38V38H0V0Z" fill="#E70031"/>
<path fill-rule="evenodd" clip-rule="evenodd" d="M14.7808 11.0393C14.537 12.437 14.3632 13.4548 14.2595 14.2494C14.2251 13.7465 14.0736 12.4933 13.8048 11.0393H12.0851L13.4013 15.8311V18.5272H15.1735V15.8311L16.5007 11L14.7808 11.0393ZM14.0356 19.8292H24.964C26.6405 19.8292 27.9996 21.2356 27.9996 22.97V24.8546C27.9996 26.5891 26.6405 27.9953 24.964 27.9953H14.0356C12.3592 27.9953 11 26.5891 11 24.8546V22.97C11 21.2356 12.3592 19.8292 14.0356 19.8292ZM20.2709 12.9832C20.4281 13.1827 20.5355 13.3882 20.5933 13.5998C20.6511 13.8116 20.68 14.1335 20.68 14.5661V16.0614C20.68 16.6104 20.6534 17.0129 20.6 17.269C20.5466 17.5251 20.4325 17.7644 20.2576 17.9867C20.0827 18.209 19.8581 18.3733 19.5838 18.4789C19.3096 18.5848 19.1466 18.6376 18.7907 18.6376C18.3935 18.6376 17.8294 18.5923 17.5537 18.5019C17.278 18.4116 17.0638 18.2751 16.9111 18.0924C16.7584 17.9101 16.6494 17.6893 16.5842 17.43C16.519 17.1709 16.4864 16.7821 16.4864 16.2636V14.6993C16.4864 14.132 16.5457 13.6889 16.6643 13.3697C16.7828 13.0508 16.9963 12.7947 17.3047 12.6014C17.613 12.4082 18.2349 12.3115 18.7152 12.3115C19.1182 12.3115 19.3127 12.3736 19.6017 12.498C19.8907 12.6222 20.1138 12.7839 20.2709 12.9832ZM18.8324 17.2014C18.8665 17.1216 18.8835 16.9498 18.8835 16.686V14.1843C18.8835 13.8716 18.8672 13.6744 18.8346 13.5933C18.8019 13.5119 18.6565 13.4713 18.5498 13.4713C18.4429 13.4713 18.3719 13.5119 18.3363 13.5933C18.3008 13.6744 18.2829 13.8716 18.2829 14.1843V16.6261C18.2829 16.9145 18.3008 17.1025 18.3363 17.1899C18.3719 17.2773 18.4415 17.3208 18.5453 17.3208C18.652 17.3208 18.7983 17.281 18.8324 17.2014ZM23.7399 16.5305V12.3043H25.5365V18.5272H23.7089L23.7399 18.02C23.6155 18.2261 23.462 18.3803 23.2797 18.4834C23.1297 18.5681 22.961 18.5646 22.7739 18.5607C22.7336 18.5599 22.6925 18.559 22.6506 18.559C22.5999 18.559 22.5482 18.56 22.4965 18.5611C22.2725 18.5656 22.0476 18.5701 21.9032 18.4904C21.7253 18.3923 21.5941 18.2619 21.5097 18.0994C21.4252 17.9369 21.3724 17.7674 21.3517 17.5912C21.331 17.4147 21.3207 17.0642 21.3207 16.5398V12.3043H23.1171V16.5766C23.1171 17.052 23.1312 17.3341 23.1593 17.423C23.1876 17.5121 23.3398 17.5567 23.4643 17.5567C23.5976 17.5567 23.677 17.5106 23.7022 17.4185C23.7274 17.3266 23.7399 17.0304 23.7399 16.5305ZM12.8227 21.0887V22.2996H13.4449V26.7081H14.6659V22.2996H15.2155V21.0887H12.8227ZM17.6438 22.3486V25.2438C17.6438 25.6106 17.6344 25.8276 17.616 25.8952C17.5976 25.9625 17.4635 25.9963 17.3658 25.9963C17.2744 25.9963 17.1046 25.9638 17.084 25.8985C17.0633 25.8331 17.053 25.6263 17.053 25.2776V22.3096H15.8494V25.2506C15.8494 25.6351 15.857 25.8922 15.8722 26.0216C15.8874 26.1511 15.926 26.2752 15.988 26.3944C16.05 26.5138 16.1461 26.6092 16.2766 26.6813C16.407 26.7531 16.5711 26.7892 16.769 26.7892C16.9428 26.7892 17.0967 26.7514 17.2303 26.6758C17.3641 26.6004 17.4766 26.4873 17.5679 26.3361L17.5451 26.7081H18.8853V22.3486H17.6438ZM19.5099 21.0887V26.7081H20.6288L20.7135 26.3698C20.8244 26.5098 21.0985 26.6144 21.2322 26.6843C21.3659 26.7541 21.5098 26.7892 21.6643 26.7892C21.8794 26.7892 22.0654 26.7301 22.2219 26.6119C22.3784 26.4938 22.4779 26.3546 22.5203 26.1936C22.5626 26.0329 22.5838 25.7883 22.5838 25.4599V23.2852C22.5838 22.9545 22.5767 23.0526 22.5626 22.9515C22.5484 22.8503 22.5066 22.7467 22.4371 22.641C22.3675 22.5354 22.2664 22.4533 22.1339 22.3947C22.0012 22.3364 21.8446 22.3071 21.6643 22.3071C21.5078 22.3071 21.3626 22.3391 21.2289 22.4035C21.0952 22.4676 20.8222 22.5652 20.7135 22.6959V21.0887H19.5099ZM21.2664 25.389C21.2664 25.6544 21.2539 25.8221 21.2289 25.8917C21.2039 25.9613 20.9983 25.9963 20.9156 25.9963C20.8352 25.9963 20.7815 25.9625 20.7543 25.8952C20.7271 25.8276 20.7135 25.6737 20.7135 25.4328V23.346C20.7135 23.0962 20.7254 23.2546 20.7494 23.1928C20.7734 23.1307 20.8254 23.0999 20.906 23.0999C20.9885 23.0999 21.1958 23.1355 21.2241 23.2061C21.2522 23.2772 21.2664 23.1142 21.2664 23.346V25.389ZM26.0772 23.9551C26.0772 23.521 26.0288 23.3412 25.9321 23.1017C25.8353 22.8621 25.6668 22.6696 25.4266 22.5246C25.1864 22.3797 24.8815 22.3071 24.512 22.3071C24.2097 22.3071 24.0182 22.3672 23.7856 22.4876C23.553 22.608 23.3476 22.781 23.2455 23.007C23.1432 23.2331 23.0922 23.2278 23.0922 23.6191V25.0821C23.0922 25.4148 23.115 25.6684 23.1607 25.8426C23.2064 26.0171 23.2884 26.1768 23.4069 26.3218C23.5255 26.467 23.7291 26.5811 23.9422 26.6642C24.1552 26.7474 24.3249 26.7892 24.6032 26.7892C24.8902 26.7892 25.1288 26.7469 25.319 26.6627C25.5092 26.5784 25.6663 26.4517 25.7902 26.283C25.9141 26.1143 25.993 25.9558 26.0267 25.8073C26.0603 25.6589 26.0772 25.4463 26.0772 25.1697V24.839H24.8283V25.4296C24.8283 25.6521 24.8114 25.8023 24.7777 25.8799C24.744 25.9575 24.6771 25.9963 24.5772 25.9963C24.4967 25.9963 24.4423 25.9671 24.4141 25.9085C24.3859 25.8502 24.3718 25.7197 24.3718 25.5172V24.2347H26.0772V23.9551ZM24.3718 23.6629V23.3357C24.3718 23.0839 24.3825 23.2434 24.4044 23.186C24.426 23.1287 24.4826 23.0999 24.5739 23.0999C24.6477 23.0999 24.6967 23.1337 24.7206 23.2011C24.7445 23.2686 24.7565 23.1042 24.7565 23.3357V23.6629H24.3718Z" fill="white"/>
</g>
<defs>
<clipPath id="clip0_2_887">
<rect width="38" height="38" fill="white"/>
</clipPath>
</defs>
</svg>
